<?xml version="1.0" encoding="utf-8"?>
<!-- Generator: Adobe Illustrator 25.0.1, SVG Export Plug-In . SVG Version: 6.00 Build 0)  -->
<svg version="1.1" id="Layer_1" xmlns="http://www.w3.org/2000/svg" xmlns:xlink="http://www.w3.org/1999/xlink" x="0px" y="0px"
	 viewBox="0 0 105.5 50.7" style="enable-background:new 0 0 105.5 50.7;" xml:space="preserve">
<style type="text/css">
	.st0{fill:#FFFFFF;}
</style>
<path class="st0" d="M50.9,11.5H35.7v4.4h5.3v23.5h4.7V15.9h5.3L50.9,11.5L50.9,11.5z M75.4,15.2c-1.3-1.3-2.9-2.4-4.6-3.1
	c-1.7-0.7-3.7-1.1-5.7-1.1c-2,0-3.9,0.4-5.7,1.1c-1.7,0.7-3.3,1.8-4.6,3.1c-1.3,1.3-2.4,2.9-3.1,4.6c-0.7,1.7-1.2,3.6-1.2,5.5
	c0,2,0.4,4,1.1,5.7c0.7,1.8,1.8,3.3,3.1,4.7c1.3,1.3,2.9,2.4,4.6,3.1c1.8,0.7,3.7,1.1,5.7,1.1c2,0,3.9-0.4,5.7-1.1
	c1.7-0.7,3.3-1.8,4.6-3.1c1.3-1.3,2.4-2.9,3.1-4.6c0.7-1.7,1.1-3.6,1.1-5.6c0-2-0.4-3.9-1.1-5.7C77.8,18.1,76.7,16.5,75.4,15.2
	L75.4,15.2z M74,29.4c-0.5,1.2-1.2,2.3-2.1,3.2c-0.9,0.9-1.9,1.6-3.1,2.1c-1.2,0.5-2.4,0.8-3.8,0.8s-2.6-0.3-3.8-0.8
	c-1.2-0.5-2.2-1.2-3.1-2.2c-0.9-0.9-1.6-2-2-3.2c-0.5-1.2-0.7-2.5-0.7-3.9c0-1.4,0.3-2.7,0.7-4c0.5-1.2,1.2-2.3,2-3.2s1.9-1.7,3-2.2
	c1.2-0.5,2.4-0.8,3.8-0.8c1.4,0,2.6,0.3,3.8,0.8c1.2,0.5,2.2,1.2,3.1,2.2c0.9,0.9,1.6,2,2.1,3.2c0.5,1.2,0.8,2.5,0.8,3.9
	C74.8,26.8,74.5,28.2,74,29.4L74,29.4z M27.8,29.3c0-1.4,0-2.8,0.1-4.2c0.4-0.1,0.8-0.3,1-0.6c0.1-0.2,0.2-0.5,0.2-0.8
	c0-0.2,0-0.4-0.1-0.6c-0.1-0.2-0.3-0.4-0.5-0.6c-0.2-0.2-0.5-0.3-0.7-0.4c-1.2-0.4-2.2-0.4-3.5-0.5l-0.3,0l-0.7,0l-0.7,0
	c0.1-0.8,0.6-4.8,1.2-7.5c0.1-0.7,0.3-1.3,0.5-2l0,0c0.3-1.3,0.7-2.7,0.7-4c0-1.2-0.3-2.3-1-3.4c-1.7-2.5-4.7-3.5-7.7-4.2
	C14.5,0.1,5.4-1.2,1.4,2.9C0.5,3.8,0,5.1,0,6.4c0,0.5,0.1,1,0.2,1.5C0.6,9.3,1,10.7,1.4,12c1,3.3,2.1,6.8,2.5,10.5l-0.1,0
	c-0.1,0-0.3,0.2-0.4,0.4c-0.1,0.2-0.3,0.5-0.3,1c0,0.1,0,0.2,0,0.3c0,0.4,0.4,0.8,0.8,0.9c0,0.3,0,0.5,0,0.8c0,1.9-0.2,3.9-0.4,5.8
	L3.5,33c-0.1,0.7-0.1,1.4-0.2,2.1l-0.4,2.6l-0.5,3.1l-0.1,0.4c-0.3,1.8-0.6,3.3-0.9,5.1l0,0l0.1,0.2l0,0c0.5,0.2,1,0.1,1.5-0.1l0,0
	l0.1-0.1l0.4-1.8c1-4.7,2.1-9.6,2.7-14.5c0.4,0.1,0.8,0.1,1.3,0.2c0,0,0.6,0.1,0.6,0.1l0.2,2.3l0.4,17.8l0.2,0.2l0,0
	c0.4,0.1,1.1,0.2,1.5-0.2l0,0l0.1-0.2v0c0-1.5,0.1-3.2,0.1-4.7l0.1-2.1c0.1-2.3,0.1-4.3,0.1-6.4c0-2.1,0-4.2-0.1-6.7
	c2.1,0.1,4.2,0,6.2,0l0.9,0c0,0,2.1-0.1,2.3-0.1c0.1,1.2,0.7,9.9,1.6,14.7c0,0,0.1,0.4,0.1,0.4l0,0l0.1,0.2l0,0
	c0.4,0.1,1.1,0.2,1.5-0.1l0,0l0.1-0.2l0,0c-0.8-5.9-1-11.4-1.1-15.1c0.7-0.1,2.3-0.3,2.9-0.4c0,0.5,0,1.1,0,1.6
	c0,6.4,1.2,12.4,2.2,17.8l0,0l0,0.1l0.1,0.1l0,0c0.5,0.1,1.2,0.1,1.6-0.2l0,0l0.1-0.2l0,0C28.3,42.9,27.8,36.4,27.8,29.3L27.8,29.3z
	 M0.9,6.6c0.3,1.6,1.2,3.2,1.2,4.8C1.6,9.9,0.6,8.4,0.9,6.6L0.9,6.6z M2.3,7.9C2.2,7.8,2.2,7.6,2.2,7.4C2.1,7.1,2,6.7,2,6.3
	c0-1,0.3-2.2,1.7-3.1C7.1,1.3,12.4,1.7,14.6,2c1.8,0.3,5.9,0.9,7.7,3.5c0.4,0.7,0.6,1.4,0.6,2.3c0,0.6-0.1,1.3-0.3,2.1
	c-0.5-2.3-1.6-3.8-3.5-4.5C15.7,3.8,8.9,3.6,4.7,5.6C4.1,5.9,2.8,6.7,2.3,7.9L2.3,7.9z M6.1,28.8c0.3-0.2,1.6-0.3,2.1-0.3l0,0.5
	L6.1,28.8L6.1,28.8z M6.3,27.5v-2c0.1,0,0.3,0,0.3,0c0.4,0,0.8,0.1,1.2,0.1l0,0.2L8,27.4C7.7,27.4,6.5,27.5,6.3,27.5L6.3,27.5z
	 M9.6,24.2c0,0,2.2,0,2.9,0c0.5,0,3.1-0.1,3.1-0.1s-0.7,0.3-2.4,0.4C11.7,24.5,10.3,24.3,9.6,24.2z M19.9,25.7c0,0.2,0,1,0,1.2
	c-0.2,0-1.1,0-1.1,0c-2.8,0-5.7,0-8.4,0.3c0-0.2-0.1-1.2-0.1-1.5L19.9,25.7L19.9,25.7z M10.4,29c0-0.1,0-0.5-0.1-0.8
	c3.2-0.3,6.3-0.3,9.8-0.2l0,0.8C16.8,28.9,13.6,29.2,10.4,29L10.4,29z M20.2,21.4c-4.6-0.3-9.4,0.1-13.9,0.6c-0.2-1.4-0.5-3-0.8-4.6
	c0.2-0.2,0.5-0.5,0.5-1.1c0,0,0-0.1,0-0.1c0-0.2-0.2-0.6-0.4-1.3C4.9,13.7,4,11.2,4,9.5C4,8.9,4.1,8.3,4.4,8c2-2.2,8.7-2.5,13.1-1.3
	C19,7.1,20.2,8,20.5,9c0.2,0.6,0.3,1.3,0.3,2.1c0,1.3-0.2,2.6-0.4,3.7l-0.1,0.4c-0.1,0.7-0.2,1.1-0.2,1.4c0,0.1,0,0.2,0,0.2
	c0.1,0.4,0.4,0.6,0.7,0.7L20.2,21.4L20.2,21.4z M21,14.8c0-3,1.7-6.6-2.1-8.5c1.5,0.7,2.6,1.4,2.9,3.6C21.9,12.1,21.4,12.9,21,14.8
	L21,14.8z M21.9,16.7c0-2.7,0.8-5.3,1.6-7.8C23.1,11.6,22.4,14.1,21.9,16.7L21.9,16.7z M22.3,28.8l0-0.7c2.5,0,3,0.3,3,0.3
	S24.9,28.7,22.3,28.8L22.3,28.8z M25.4,27.4c-0.3-0.1-1.2-0.2-3-0.3c0-0.2-0.1-1.2-0.1-1.4c1.1,0,2-0.1,3-0.3V27.4z M25.8,23.5
	c0,0-0.6,0.1-1.2,0.1c0,0-0.9,0-1,0c0,0-0.1-0.2-0.2-0.2c2,0,3.4-0.2,4.5-0.4C27.5,23.1,26.9,23.4,25.8,23.5L25.8,23.5z M19.1,5.3
	L19.1,5.3L19.1,5.3L19.1,5.3z M100.8,11.5v20.4L88.7,11.5h-5.3v27.9H88V19l12.2,20.4l5.3,0V11.5L100.8,11.5L100.8,11.5z"/>
</svg>
